<svg width="222" height="599" viewBox="0 0 222 599" fill="none" xmlns="http://www.w3.org/2000/svg">
<path d="M189.469 239.612C204.991 255.134 215.561 274.91 219.844 296.44C224.126 317.97 221.928 340.286 213.528 360.566C205.127 380.846 190.902 398.18 172.65 410.376C154.398 422.571 132.94 429.081 110.988 429.081C89.0368 429.081 67.5783 422.571 49.3264 410.376C31.0745 398.18 16.8489 380.846 8.44846 360.566C0.0480337 340.286 -2.1499 317.969 2.13261 296.44C6.41512 274.91 16.9857 255.134 32.5077 239.612L52.1278 259.232C40.4863 270.874 32.5584 285.706 29.3465 301.853C26.1346 318 27.7831 334.737 34.0834 349.948C40.3837 365.158 51.0529 378.158 64.7419 387.305C78.4308 396.452 94.5246 401.334 110.988 401.334C127.452 401.334 143.546 396.452 157.234 387.305C170.923 378.158 181.593 365.158 187.893 349.948C194.193 334.737 195.842 318 192.63 301.853C189.418 285.706 181.49 270.874 169.849 259.232L189.469 239.612Z" fill="white" fill-opacity="0.2"/>
<path d="M110.988 429.081C132.94 429.081 154.398 435.59 172.65 447.786C190.902 459.981 205.127 477.315 213.528 497.596C221.928 517.876 224.126 540.192 219.844 561.722C215.561 583.252 204.991 603.028 189.469 618.55C173.947 634.072 154.17 644.642 132.641 648.925C111.111 653.207 88.7951 651.009 68.5147 642.609C48.2342 634.208 30.9003 619.983 18.7048 601.731C6.50926 583.479 -4.23923e-05 562.02 2.06969e-10 540.069L27.747 540.069C27.747 556.533 32.629 572.626 41.7756 586.315C50.9223 600.004 63.9227 610.674 79.133 616.974C94.3434 623.274 111.08 624.923 127.228 621.711C143.375 618.499 158.207 610.571 169.848 598.93C181.49 587.288 189.418 572.456 192.63 556.309C195.842 540.162 194.193 523.425 187.893 508.214C181.593 493.004 170.923 480.003 157.234 470.857C143.546 461.71 127.452 456.828 110.988 456.828V429.081Z" fill="white" fill-opacity="0.2"/>
<path fill-rule="evenodd" clip-rule="evenodd" d="M96.9434 0H124.484V87.952L201.024 43.7612L214.795 67.612L138.521 111.649L211.403 153.727L197.633 177.578L124.484 135.345V220.324H96.9434V135.653L23.9886 177.774L10.2183 153.923L83.4401 111.649L6.82715 67.416L20.5974 43.5653L96.9434 87.6436V0Z" fill="white" fill-opacity="0.2"/>
</svg>
