<svg width="63" height="70" viewBox="0 0 63 70" fill="none" xmlns="http://www.w3.org/2000/svg">
<mask id="mask0_85_400" style="mask-type:luminance" maskUnits="userSpaceOnUse" x="9" y="0" width="42" height="70">
<path d="M9.49707 0.0493164H50.1566V70H9.49707V0.0493164Z" fill="#33A7D8"/>
</mask>
<g mask="url(#mask0_85_400)">
<path fill-rule="evenodd" clip-rule="evenodd" d="M45.9767 0.35982L9.49707 18.7559V57.0181L13.4571 58.3967V68.5107L20.413 60.8178L46.3263 69.8378C48.2015 70.4905 50.1565 69.0876 50.1565 67.0891V2.96021C50.1565 0.797684 47.8967 -0.60834 45.9767 0.35982Z" fill="#33A7D8"/>
</g>
<path fill-rule="evenodd" clip-rule="evenodd" d="M37.4685 20.429L3.3021 16.0892C1.54964 15.8664 0 17.2353 0 19.0055V55.5842C0 57.309 1.47442 58.6634 3.18896 58.513L37.3715 55.5159C38.6702 55.4021 39.6667 54.3123 39.6667 53.0057V22.9289C39.6667 21.6595 38.7249 20.5886 37.4685 20.429Z" fill="black"/>
<path fill-rule="evenodd" clip-rule="evenodd" d="M26.6171 46.1516C26.6194 48.229 25.2255 49.2656 23.7117 49.3731C22.4994 49.4594 21.5573 49.2408 20.9091 48.7124L20.9068 45.8656C21.6063 46.5513 22.7473 46.9666 23.6072 46.9196C24.1303 46.8911 24.3966 46.5807 24.3961 46.2634C24.3951 45.049 20.8405 45.6632 20.838 42.467C20.8365 40.5372 21.9959 39.3683 23.8691 39.3624C24.8195 39.3593 25.6212 39.6526 26.2787 40.2383L26.2814 42.89C25.5487 42.2254 24.7838 41.7638 23.9602 41.78C23.4744 41.7894 23.2308 42.1091 23.231 42.4288C23.2321 43.5286 26.6136 42.7077 26.6171 46.1516ZM30.321 39.5742L31.8094 39.5669L31.8123 41.9393L30.3237 41.9719L30.3276 45.2249C30.3284 46.0128 30.5151 46.3075 31.0137 46.281C31.2903 46.2667 31.5543 46.1461 31.8171 45.9197L31.82 48.2649C31.4541 48.6449 30.9587 48.8577 30.3202 48.9031C29.0959 48.9902 28.235 47.9971 28.2327 46.0341L28.2284 42.0178L27.1513 42.0414L27.1486 39.5896L28.2259 39.5845L28.2233 37.1161L30.3181 37.1421L30.321 39.5742ZM4.32214 37.6084L12.5959 37.6716L12.597 40.6751L7.21686 40.7358L7.21706 42.8873L11.2711 42.7885L11.2719 45.703L7.21747 45.876L7.21809 50.2904L4.32214 50.4917V37.6084ZM15.1722 43.6728C15.272 42.5295 15.7559 41.8105 16.4204 41.7982C17.0234 41.7867 17.5253 42.5192 17.5397 43.6002L15.1722 43.6728ZM16.5317 39.386C14.0327 39.3942 12.6563 41.8532 12.6574 44.7775C12.6586 48.1892 14.4511 50.0318 16.7341 49.8694C18.0284 49.7773 18.8641 49.3692 19.5158 48.6494L19.5142 46.0268C18.7943 46.6225 18.0397 46.9527 17.2776 46.9931C16.254 47.0468 15.4022 46.5766 15.1875 45.5362L19.905 45.3353L19.9043 44.4891C19.9023 41.6936 18.7353 39.379 16.5317 39.386ZM12.5933 30.1053L12.5945 33.6625C11.6553 34.4805 10.5409 34.897 9.24388 34.8648C6.09875 34.7867 3.5 32.083 3.5 27.9745C3.50021 23.8958 6.04722 21.4994 9.22677 21.8343C10.4339 21.9614 11.4842 22.4583 12.4131 23.3585L12.4144 26.7213C11.4741 25.714 10.4432 25.1558 9.25583 25.0545C7.62556 24.915 6.27373 26.1381 6.27394 28.1551C6.27414 30.2489 7.67173 31.5741 9.35682 31.6495C10.7769 31.7129 11.8383 31.1789 12.5933 30.1053ZM32.4109 29.8207C32.4888 28.8128 32.8713 28.2119 33.3973 28.2525C33.8752 28.2892 34.2736 28.9803 34.286 29.9431L32.4109 29.8207ZM36.1656 30.9228C36.1621 28.4312 35.2322 26.2785 33.4836 26.1163C31.5075 25.933 30.4238 28.0091 30.4267 30.602C30.4269 30.6964 30.4286 30.7893 30.4312 30.8811C30.4314 30.8846 30.4317 30.8881 30.4319 30.8916C30.443 31.2531 30.4753 31.5964 30.5281 31.9223C30.5304 31.9378 30.5335 31.953 30.5361 31.9684C30.5458 32.0266 30.5557 32.0847 30.5671 32.1419C30.9681 34.227 32.1806 35.4175 33.6516 35.4542C34.678 35.4798 35.3418 35.1859 35.8596 34.5986L35.8563 32.2617C35.2843 32.7339 34.6852 32.9669 34.0803 32.9406C33.2693 32.9054 32.5949 32.4187 32.4245 31.4771L36.1667 31.677L36.1656 30.9228ZM26.0118 32.657C25.2276 32.6234 24.6738 31.6013 24.6725 30.2639C24.6713 28.9268 25.2232 27.9704 26.0072 28.0288C26.5623 28.0704 26.9671 28.4543 27.2482 29.1805L27.2507 31.6512C26.971 32.3443 26.5668 32.6808 26.0118 32.657ZM27.2542 35.057L29.377 35.1136L29.3634 23.2972L27.2414 23.0579L27.2457 26.8162C26.8055 25.9184 26.1779 25.4388 25.3706 25.3639C23.5466 25.1947 22.4167 27.5131 22.4188 30.1308C22.4211 32.7438 23.5216 35.2015 25.3799 35.2479C26.1997 35.2684 26.8267 34.8623 27.2531 34.0152L27.2542 35.057ZM17.7407 32.2817C16.8361 32.2428 16.1749 31.1789 16.1743 29.7633C16.1735 28.3901 16.8334 27.3621 17.7378 27.4298C18.6314 27.4964 19.272 28.5999 19.273 29.9456C19.2739 31.3329 18.6345 32.3201 17.7407 32.2817ZM17.7361 24.656C15.4107 24.4403 13.6771 26.5798 13.6784 29.6165C13.6796 32.6103 15.346 34.9973 17.7423 35.0572C20.0669 35.1154 21.5981 32.9246 21.596 30.0824C21.5938 27.2044 19.9983 24.8658 17.7361 24.656Z" fill="white"/>
</svg>
