<svg width="22" height="21" viewBox="0 0 22 21" fill="none" xmlns="http://www.w3.org/2000/svg">
<path d="M0.0634766 10.0249C0.0634766 5.311 0.0634766 2.94359 1.5326 1.47706C3.02286 0.0209962 5.40094 0.0209961 10.1677 0.0209961H11.0132C15.7694 0.0209961 18.158 0.0209962 19.6377 1.47706C21.1068 2.93311 21.1068 5.311 21.1068 10.0249V10.8629C21.1068 15.5767 21.1068 17.9441 19.6377 19.4107C18.1686 20.8667 15.7694 20.8667 11.0132 20.8667H10.1677C5.41151 20.8667 3.02286 20.8667 1.54317 19.4107C0.0634766 17.9441 0.0634766 15.5872 0.0634766 10.8629V10.0249Z" fill="#FF7700"/>
<path d="M10.5799 10.3915C11.6051 10.3915 12.5352 9.97245 13.2011 9.31251C13.8669 8.65257 14.2897 7.73075 14.2897 6.71465C14.2897 5.69855 13.8669 4.77673 13.2011 4.11679C12.5352 3.45685 11.6051 3.03784 10.5799 3.03784C9.5547 3.03784 8.62461 3.45685 7.95875 4.11679C7.29289 4.76626 6.87012 5.68808 6.87012 6.71465C6.87012 7.74123 7.29289 8.65257 7.95875 9.31251C8.62461 9.97245 9.56527 10.3915 10.5799 10.3915ZM9.39616 5.52048C9.70267 5.21669 10.1254 5.02814 10.5905 5.02814C11.0661 5.02814 11.4783 5.21669 11.7848 5.52048C12.0913 5.82426 12.2816 6.24327 12.2816 6.70418C12.2816 7.17556 12.0913 7.5841 11.7848 7.88788C11.4783 8.19166 11.0555 8.38022 10.5905 8.38022C10.1149 8.38022 9.70267 8.19166 9.39616 7.88788C9.08966 7.5841 8.89941 7.16509 8.89941 6.70418C8.89941 6.24327 9.10022 5.82426 9.39616 5.52048Z" fill="white"/>
<path d="M15.5896 11.879L14.501 10.402C14.4376 10.3182 14.3107 10.3077 14.2367 10.3811C13.2115 11.2505 11.9432 11.8162 10.5798 11.8162C9.21635 11.8162 7.95861 11.2505 6.92283 10.3811C6.84885 10.3182 6.72201 10.3287 6.6586 10.402L5.56997 11.879C5.51712 11.9524 5.52769 12.0466 5.59111 12.1095C6.51063 12.8428 7.57812 13.3456 8.68789 13.6074L6.3838 17.6299C6.32038 17.7452 6.40494 17.8918 6.53177 17.8918H8.78301C8.857 17.8918 8.92041 17.8499 8.94155 17.7766L10.5481 14.215L12.1546 17.7766C12.1757 17.8394 12.2392 17.8918 12.3131 17.8918H14.5644C14.7018 17.8918 14.7758 17.7556 14.7124 17.6299L12.4083 13.6074C13.518 13.3456 14.5855 12.8637 15.505 12.1095C15.6424 12.0466 15.653 11.9524 15.5896 11.879Z" fill="white"/>
</svg>
