<svg width="86" height="21" viewBox="0 0 86 21" fill="none" xmlns="http://www.w3.org/2000/svg">
<g clip-path="url(#clip0_115_489)">
<g clip-path="url(#clip1_115_489)">
<path d="M0.0634766 10.0249C0.0634766 5.311 0.0634766 2.94359 1.5326 1.47706C3.02286 0.0209962 5.40094 0.0209961 10.1677 0.0209961H11.0132C15.7694 0.0209961 18.158 0.0209962 19.6377 1.47706C21.1068 2.93311 21.1068 5.311 21.1068 10.0249V10.8629C21.1068 15.5767 21.1068 17.9441 19.6377 19.4107C18.1686 20.8667 15.7694 20.8667 11.0132 20.8667H10.1677C5.41151 20.8667 3.02286 20.8667 1.54317 19.4107C0.0634766 17.9441 0.0634766 15.5872 0.0634766 10.8629V10.0249Z" fill="#FF7700"/>
<path d="M10.5799 10.3917C11.6051 10.3917 12.5352 9.9727 13.2011 9.31276C13.8669 8.65282 14.2897 7.731 14.2897 6.7149C14.2897 5.6988 13.8669 4.77698 13.2011 4.11704C12.5352 3.4571 11.6051 3.03809 10.5799 3.03809C9.5547 3.03809 8.62461 3.4571 7.95875 4.11704C7.29289 4.7665 6.87012 5.68832 6.87012 6.7149C6.87012 7.74147 7.29289 8.65282 7.95875 9.31276C8.62461 9.9727 9.56527 10.3917 10.5799 10.3917ZM9.39616 5.52072C9.70267 5.21694 10.1254 5.02838 10.5905 5.02838C11.0661 5.02838 11.4783 5.21694 11.7848 5.52072C12.0913 5.8245 12.2816 6.24351 12.2816 6.70442C12.2816 7.17581 12.0913 7.58434 11.7848 7.88812C11.4783 8.19191 11.0555 8.38046 10.5905 8.38046C10.1149 8.38046 9.70267 8.19191 9.39616 7.88812C9.08966 7.58434 8.89941 7.16533 8.89941 6.70442C8.89941 6.24351 9.10022 5.8245 9.39616 5.52072Z" fill="white"/>
<path d="M15.5896 11.879L14.501 10.402C14.4376 10.3182 14.3107 10.3077 14.2367 10.3811C13.2115 11.2505 11.9432 11.8162 10.5798 11.8162C9.21635 11.8162 7.95861 11.2505 6.92283 10.3811C6.84885 10.3182 6.72202 10.3287 6.6586 10.402L5.56997 11.879C5.51712 11.9524 5.52769 12.0466 5.59111 12.1095C6.51063 12.8428 7.57812 13.3456 8.68789 13.6074L6.3838 17.6299C6.32038 17.7452 6.40494 17.8918 6.53177 17.8918H8.78301C8.857 17.8918 8.92041 17.8499 8.94155 17.7766L10.5481 14.215L12.1546 17.7766C12.1757 17.8394 12.2392 17.8918 12.3131 17.8918H14.5644C14.7018 17.8918 14.7758 17.7556 14.7124 17.6299L12.4083 13.6074C13.518 13.3456 14.5855 12.8637 15.505 12.1095C15.6424 12.0466 15.653 11.9524 15.5896 11.879Z" fill="white"/>
</g>
<path fill-rule="evenodd" clip-rule="evenodd" d="M30.0608 7.25716C31.9148 7.25716 33.1844 8.58036 33.1844 10.4474C33.1844 12.2773 31.9019 13.6134 30.0608 13.6134C28.1952 13.6134 26.9257 12.3273 26.9257 10.4474C26.9257 8.56752 28.2067 7.25716 30.0608 7.25716ZM24.7471 10.4474C24.7471 13.4278 27.1124 15.6289 30.0608 15.6289C32.9847 15.6289 35.3615 13.4164 35.3615 10.4474C35.3615 7.47841 32.9977 5.24023 30.0608 5.24023C27.1239 5.24023 24.7471 7.46699 24.7471 10.4474ZM36.6684 5.38868C36.4946 5.38868 36.407 5.48717 36.407 5.64847V15.2478C36.407 15.4205 36.5061 15.5076 36.6684 15.5076H38.3114C38.4851 15.5076 38.5727 15.4091 38.5727 15.2478V11.0926L42.5049 15.372L42.5286 15.3902C42.6248 15.4647 42.6803 15.5076 42.8653 15.5076H45.2048C45.3671 15.5076 45.3786 15.3463 45.2795 15.2349L40.4268 10.2875L45.031 5.66275C45.1301 5.55141 45.1186 5.39011 44.9563 5.39011H42.5925C42.4431 5.39011 42.3426 5.42722 42.2435 5.53856L38.5727 9.56956V5.64847C38.5727 5.47576 38.4736 5.38868 38.3114 5.38868H36.6684ZM46.7673 15.3291C47.0043 15.5703 47.2987 15.6902 47.6506 15.6902C47.9924 15.6902 48.2839 15.5703 48.5266 15.3291C48.7693 15.0879 48.89 14.7838 48.89 14.4441C48.89 14.1044 48.7693 13.816 48.5266 13.5805C48.2839 13.345 48.0024 13.2265 47.6506 13.2265C47.2987 13.2265 47.0043 13.345 46.7673 13.5805C46.5304 13.8175 46.4112 14.0944 46.4112 14.4441C46.4112 14.7938 46.5304 15.0879 46.7673 15.3291ZM49.3693 7.08727V5.667C49.3693 5.54282 49.4698 5.4429 49.5947 5.4429H57.6974C57.8223 5.4429 57.9229 5.54282 57.9229 5.667V7.08727C57.9229 7.21146 57.8223 7.31137 57.6974 7.31137H54.6873V15.3562C54.6873 15.4804 54.5867 15.5803 54.4618 15.5803H52.8145C52.6896 15.5803 52.5891 15.4804 52.5891 15.3562V7.31137H49.5947C49.4698 7.31137 49.3693 7.21146 49.3693 7.08727ZM59.5258 15.5803H66.6849V15.5818C66.8199 15.5818 66.9305 15.4719 66.9305 15.3377V13.9574C66.9305 13.8232 66.8199 13.7133 66.6849 13.7133H61.3784V11.1068H65.4757C65.6107 11.1068 65.7213 10.9969 65.7213 10.8628V9.51101C65.7213 9.37683 65.6107 9.26692 65.4757 9.26692H61.3784V7.31137H66.5241C66.6591 7.31137 66.7696 7.20147 66.7696 7.06729V5.68699C66.7696 5.55281 66.6591 5.4429 66.5241 5.4429H59.5258C59.3908 5.4429 59.2802 5.55281 59.2802 5.68699V15.3363C59.2802 15.4704 59.3908 15.5803 59.5258 15.5803ZM72.9781 15.7844C71.3941 15.7844 70.0786 15.292 69.0287 14.307C67.9804 13.3036 67.4547 12.0389 67.4547 10.513C67.4547 8.98711 67.9746 7.70387 69.0144 6.71896C70.0642 5.73405 71.384 5.24159 72.9781 5.24159C73.9173 5.24159 74.7747 5.43287 75.5488 5.81541C75.6263 5.85395 75.6737 5.93246 75.6737 6.0181V7.78809C75.6737 7.87088 75.5833 7.91941 75.5114 7.87658C74.7647 7.4241 73.9245 7.19714 72.9925 7.19714C72.0604 7.19714 71.2188 7.51117 70.5597 8.1378C69.9191 8.75587 69.5975 9.54808 69.5975 10.513C69.5975 11.4779 69.9278 12.2744 70.5884 12.9025C71.239 13.5205 72.069 13.8289 73.0801 13.8289C74.0911 13.8289 74.9944 13.5748 75.7125 13.0681C75.7814 13.0195 75.8777 13.0695 75.8777 13.1537V14.9137C75.8777 14.9951 75.8346 15.0707 75.7628 15.1107C74.9628 15.5589 74.0337 15.783 72.9781 15.783V15.7844ZM77.4341 15.5803H79.09C79.2121 15.5803 79.3112 15.4818 79.3112 15.3605V11.134H83.9154V15.3605C83.9154 15.4818 84.0145 15.5803 84.1366 15.5803H85.7781C85.9001 15.5803 85.9992 15.4818 85.9992 15.3605V5.66272C85.9992 5.54139 85.9001 5.4429 85.7781 5.4429H84.1366C84.0145 5.4429 83.9154 5.54139 83.9154 5.66272V9.23695H79.3112V5.66272C79.3112 5.54139 79.2121 5.4429 79.09 5.4429H77.4341C77.3121 5.4429 77.213 5.54139 77.213 5.66272V15.3605C77.213 15.4818 77.3121 15.5803 77.4341 15.5803Z" fill="white"/>
</g>
<defs>
<clipPath id="clip0_115_489">
<rect width="86" height="21" fill="white"/>
</clipPath>
<clipPath id="clip1_115_489">
<rect width="21.1385" height="20.9505" fill="white"/>
</clipPath>
</defs>
</svg>
