<svg width="86" height="21" viewBox="0 0 86 21" fill="none" xmlns="http://www.w3.org/2000/svg">
<g clip-path="url(#clip0_5_332)">
<g clip-path="url(#clip1_5_332)">
<path d="M0.0634766 10.0249C0.0634766 5.311 0.0634766 2.94359 1.5326 1.47706C3.02286 0.0209962 5.40094 0.0209961 10.1677 0.0209961H11.0132C15.7694 0.0209961 18.158 0.0209962 19.6377 1.47706C21.1068 2.93311 21.1068 5.311 21.1068 10.0249V10.8629C21.1068 15.5767 21.1068 17.9441 19.6377 19.4107C18.1686 20.8667 15.7694 20.8667 11.0132 20.8667H10.1677C5.41151 20.8667 3.02286 20.8667 1.54317 19.4107C0.0634766 17.9441 0.0634766 15.5872 0.0634766 10.8629V10.0249Z" fill="#FF7700"/>
<path d="M10.5799 10.3915C11.6051 10.3915 12.5352 9.97245 13.2011 9.31251C13.8669 8.65257 14.2897 7.73075 14.2897 6.71465C14.2897 5.69855 13.8669 4.77673 13.2011 4.11679C12.5352 3.45685 11.6051 3.03784 10.5799 3.03784C9.5547 3.03784 8.62461 3.45685 7.95875 4.11679C7.29289 4.76626 6.87012 5.68808 6.87012 6.71465C6.87012 7.74123 7.29289 8.65257 7.95875 9.31251C8.62461 9.97245 9.56527 10.3915 10.5799 10.3915ZM9.39616 5.52048C9.70267 5.21669 10.1254 5.02814 10.5905 5.02814C11.0661 5.02814 11.4783 5.21669 11.7848 5.52048C12.0913 5.82426 12.2816 6.24327 12.2816 6.70418C12.2816 7.17556 12.0913 7.5841 11.7848 7.88788C11.4783 8.19166 11.0555 8.38022 10.5905 8.38022C10.1149 8.38022 9.70267 8.19166 9.39616 7.88788C9.08966 7.5841 8.89941 7.16509 8.89941 6.70418C8.89941 6.24327 9.10022 5.82426 9.39616 5.52048Z" fill="white"/>
<path d="M15.5896 11.879L14.501 10.402C14.4376 10.3182 14.3107 10.3077 14.2367 10.3811C13.2115 11.2505 11.9432 11.8162 10.5798 11.8162C9.21635 11.8162 7.95861 11.2505 6.92283 10.3811C6.84885 10.3182 6.72201 10.3287 6.6586 10.402L5.56997 11.879C5.51712 11.9524 5.52769 12.0466 5.59111 12.1095C6.51063 12.8428 7.57812 13.3456 8.68789 13.6074L6.3838 17.6299C6.32038 17.7452 6.40494 17.8918 6.53177 17.8918H8.78301C8.857 17.8918 8.92041 17.8499 8.94155 17.7766L10.5481 14.215L12.1546 17.7766C12.1757 17.8394 12.2392 17.8918 12.3131 17.8918H14.5644C14.7018 17.8918 14.7758 17.7556 14.7124 17.6299L12.4083 13.6074C13.518 13.3456 14.5855 12.8637 15.505 12.1095C15.6424 12.0466 15.653 11.9524 15.5896 11.879Z" fill="white"/>
</g>
<path fill-rule="evenodd" clip-rule="evenodd" d="M30.0608 7.25692C31.9148 7.25692 33.1844 8.58012 33.1844 10.4472C33.1844 12.2771 31.9019 13.6132 30.0608 13.6132C28.1952 13.6132 26.9257 12.3271 26.9257 10.4472C26.9257 8.56727 28.2067 7.25692 30.0608 7.25692ZM24.7471 10.4472C24.7471 13.4276 27.1124 15.6287 30.0608 15.6287C32.9847 15.6287 35.3615 13.4162 35.3615 10.4472C35.3615 7.47816 32.9977 5.23999 30.0608 5.23999C27.1239 5.23999 24.7471 7.46674 24.7471 10.4472ZM36.6684 5.38844C36.4946 5.38844 36.407 5.48693 36.407 5.64823V15.2475C36.407 15.4202 36.5061 15.5073 36.6684 15.5073H38.3114C38.4851 15.5073 38.5727 15.4088 38.5727 15.2475V11.0924L42.5049 15.3717L42.5286 15.39C42.6248 15.4644 42.6803 15.5073 42.8653 15.5073H45.2048C45.3671 15.5073 45.3786 15.346 45.2795 15.2347L40.4268 10.2873L45.031 5.6625C45.1301 5.55116 45.1186 5.38987 44.9563 5.38987H42.5925C42.4431 5.38987 42.3426 5.42698 42.2435 5.53832L38.5727 9.56931V5.64823C38.5727 5.47551 38.4736 5.38844 38.3114 5.38844H36.6684ZM46.7673 15.3288C47.0043 15.5701 47.2987 15.69 47.6506 15.69C47.9924 15.69 48.2839 15.5701 48.5266 15.3288C48.7693 15.0876 48.89 14.7836 48.89 14.4439C48.89 14.1041 48.7693 13.8158 48.5266 13.5803C48.2839 13.3447 48.0024 13.2263 47.6506 13.2263C47.2987 13.2263 47.0043 13.3447 46.7673 13.5803C46.5304 13.8172 46.4112 14.0941 46.4112 14.4439C46.4112 14.7936 46.5304 15.0876 46.7673 15.3288ZM49.3693 7.08703V5.66676C49.3693 5.54258 49.4698 5.44266 49.5947 5.44266H57.6974C57.8223 5.44266 57.9229 5.54258 57.9229 5.66676V7.08703C57.9229 7.21121 57.8223 7.31113 57.6974 7.31113H54.6873V15.356C54.6873 15.4802 54.5867 15.5801 54.4618 15.5801H52.8145C52.6896 15.5801 52.5891 15.4802 52.5891 15.356V7.31113H49.5947C49.4698 7.31113 49.3693 7.21121 49.3693 7.08703ZM59.5258 15.5801H66.6849V15.5815C66.8199 15.5815 66.9305 15.4716 66.9305 15.3374V13.9571C66.9305 13.823 66.8199 13.713 66.6849 13.713H61.3784V11.1066H65.4757C65.6107 11.1066 65.7213 10.9967 65.7213 10.8625V9.51077C65.7213 9.37659 65.6107 9.26668 65.4757 9.26668H61.3784V7.31113H66.5241C66.6591 7.31113 66.7696 7.20122 66.7696 7.06704V5.68674C66.7696 5.55257 66.6591 5.44266 66.5241 5.44266H59.5258C59.3908 5.44266 59.2802 5.55257 59.2802 5.68674V15.336C59.2802 15.4702 59.3908 15.5801 59.5258 15.5801ZM72.9781 15.7842C71.3941 15.7842 70.0786 15.2917 69.0287 14.3068C67.9804 13.3033 67.4547 12.0387 67.4547 10.5128C67.4547 8.98686 67.9746 7.70362 69.0144 6.71871C70.0642 5.7338 71.384 5.24135 72.9781 5.24135C73.9173 5.24135 74.7747 5.43262 75.5488 5.81517C75.6263 5.85371 75.6737 5.93221 75.6737 6.01786V7.78784C75.6737 7.87063 75.5833 7.91916 75.5114 7.87634C74.7647 7.42385 73.9245 7.1969 72.9925 7.1969C72.0604 7.1969 71.2188 7.51093 70.5597 8.13755C69.9191 8.75562 69.5975 9.54783 69.5975 10.5128C69.5975 11.4777 69.9278 12.2742 70.5884 12.9022C71.239 13.5203 72.069 13.8286 73.0801 13.8286C74.0911 13.8286 74.9944 13.5745 75.7125 13.0678C75.7814 13.0193 75.8777 13.0692 75.8777 13.1535V14.9135C75.8777 14.9948 75.8346 15.0705 75.7628 15.1104C74.9628 15.5586 74.0337 15.7827 72.9781 15.7827V15.7842ZM77.4341 15.5801H79.09C79.2121 15.5801 79.3112 15.4816 79.3112 15.3603V11.1337H83.9154V15.3603C83.9154 15.4816 84.0145 15.5801 84.1366 15.5801H85.7781C85.9001 15.5801 85.9992 15.4816 85.9992 15.3603V5.66248C85.9992 5.54115 85.9001 5.44266 85.7781 5.44266H84.1366C84.0145 5.44266 83.9154 5.54115 83.9154 5.66248V9.2367H79.3112V5.66248C79.3112 5.54115 79.2121 5.44266 79.09 5.44266H77.4341C77.3121 5.44266 77.213 5.54115 77.213 5.66248V15.3603C77.213 15.4816 77.3121 15.5801 77.4341 15.5801Z" fill="black"/>
</g>
<defs>
<clipPath id="clip0_5_332">
<rect width="86" height="21" fill="white"/>
</clipPath>
<clipPath id="clip1_5_332">
<rect width="21.1385" height="20.9505" fill="white"/>
</clipPath>
</defs>
</svg>
