<svg width="247" height="86" viewBox="0 0 247 86" fill="none" xmlns="http://www.w3.org/2000/svg">
<path d="M264.33 19.6884C259.811 15.7613 254.228 13.2625 248.289 12.508C242.349 11.7535 236.32 12.7772 230.962 15.4496C225.604 18.1221 221.159 22.3232 218.189 27.5218C215.219 32.7204 213.858 38.683 214.276 44.6555C214.695 50.628 216.876 56.3422 220.542 61.0756C224.208 65.8089 229.196 69.3487 234.874 71.2475C240.552 73.1462 246.666 73.3185 252.442 71.7427C258.218 70.1668 263.397 66.9135 267.324 62.3942L258.923 55.0939C256.44 57.9516 253.165 60.0088 249.512 61.0053C245.86 62.0017 241.994 61.8928 238.404 60.6921C234.813 59.4915 231.659 57.2531 229.341 54.2601C227.023 51.267 225.644 47.6537 225.379 43.8771C225.114 40.1005 225.975 36.3301 227.853 33.0429C229.731 29.7556 232.542 27.0991 235.93 25.4092C239.318 23.7193 243.131 23.072 246.886 23.5491C250.642 24.0262 254.172 25.6063 257.03 28.0895L264.33 19.6884Z" fill="#FF7700"/>
<path d="M148.347 43.7168C148.499 49.7021 150.422 55.508 153.873 60.4004C157.324 65.2928 162.149 69.052 167.736 71.2025C173.324 73.353 179.424 73.7982 185.264 72.482C191.105 71.1657 196.424 68.1471 200.549 63.8077C204.675 59.4684 207.42 54.0033 208.439 48.1035C209.458 42.2036 208.705 36.1341 206.275 30.6624C203.844 25.1908 199.846 20.5627 194.785 17.3634C189.724 14.1641 183.829 12.5374 177.843 12.6889L178.125 23.8152C181.91 23.7194 185.638 24.748 188.838 26.771C192.038 28.794 194.566 31.7205 196.103 35.1805C197.64 38.6404 198.116 42.4784 197.472 46.209C196.827 49.9397 195.091 53.3955 192.483 56.1394C189.874 58.8833 186.511 60.7921 182.818 61.6244C179.124 62.4568 175.267 62.1752 171.734 60.8154C168.201 59.4555 165.15 57.0785 162.968 53.9849C160.785 50.8912 159.569 47.2199 159.474 43.4352L148.347 43.7168Z" fill="#FF7700"/>
<path d="M110.64 73.2193C116.626 73.3026 122.503 71.6088 127.527 68.3521C132.551 65.0954 136.496 60.422 138.864 54.923C141.232 49.424 141.916 43.3462 140.83 37.4584C139.744 31.5706 136.936 26.1371 132.762 21.8451C128.587 17.553 123.234 14.5952 117.379 13.3455C111.524 12.0959 105.429 12.6107 99.8664 14.8247C94.3036 17.0387 89.5223 20.8526 86.1271 25.784C82.7318 30.7154 80.8752 36.5428 80.7919 42.5294L91.9206 42.6843C91.9733 38.8987 93.1473 35.2138 95.2943 32.0955C97.4412 28.9772 100.465 26.5656 103.982 25.1656C107.5 23.7656 111.353 23.4401 115.056 24.2302C118.758 25.0204 122.143 26.8908 124.783 29.6048C127.423 32.3188 129.198 35.7546 129.885 39.4777C130.572 43.2008 130.139 47.0439 128.642 50.5211C127.144 53.9984 124.65 56.9535 121.473 59.0128C118.296 61.0722 114.58 62.1432 110.794 62.0906L110.64 73.2193Z" fill="#FF7700"/>
<path d="M44.0604 12.706C38.0786 12.4512 32.1556 13.976 27.0404 17.0874C21.9252 20.1988 17.8475 24.7572 15.323 30.1861C12.7985 35.615 11.9405 41.6707 12.8576 47.5872C13.7747 53.5037 16.4257 59.0154 20.4752 63.4253C24.5248 67.8352 29.7911 70.9452 35.6082 72.3621C41.4253 73.779 47.532 73.4391 53.1559 71.3854C58.7798 69.3316 63.6684 65.6563 67.2036 60.8243C70.7387 55.9922 72.7616 50.2203 73.0164 44.2385L61.8966 43.7649C61.7355 47.5474 60.4564 51.1971 58.221 54.2526C55.9856 57.3081 52.8943 59.6322 49.3381 60.9308C45.7819 62.2294 41.9205 62.4444 38.2421 61.5484C34.5638 60.6525 31.2337 58.6859 28.673 55.8974C26.1123 53.1088 24.436 49.6236 23.8561 45.8824C23.2762 42.1411 23.8187 38.312 25.4151 34.8791C27.0114 31.4462 29.5899 28.5637 32.8244 26.5963C36.0589 24.6288 39.8042 23.6647 43.5867 23.8258L44.0604 12.706Z" fill="#FF7700"/>
</svg>
