<svg width="28" height="23" viewBox="0 0 28 23" fill="none" xmlns="http://www.w3.org/2000/svg">
<path d="M26.6411 5.58207e-05C25.7839 -0.00591898 24.9418 0.469078 24.1659 0.782755C23.3238 1.12631 22.4847 1.47583 21.6426 1.82536C18.208 3.25035 14.7674 4.6604 11.3268 6.07046C7.98242 7.44167 4.50573 8.64261 1.24257 10.1961C0.695202 10.456 -0.176979 10.931 0.0275326 11.6808C0.102721 11.9526 0.304224 12.1259 0.553848 12.2484C0.740315 12.3679 2.58693 12.9803 3.7358 13.3567C4.03656 13.4643 4.34031 13.5629 4.64407 13.6525C4.65009 13.6555 4.6531 13.6555 4.6531 13.6555C5.33881 13.8526 6.02453 13.9871 6.68618 13.9751C7.63956 13.993 8.49671 13.6286 9.30272 13.1327C9.51626 12.9773 9.72979 12.825 9.94332 12.6846C10.1238 12.5621 10.3042 12.4426 10.4877 12.3201C12.214 11.164 13.9403 10.0108 15.6696 8.8577C16.5779 8.25126 17.4772 7.61793 18.4035 7.04136C18.8666 6.75158 20.7102 5.65819 20.3824 6.93979C20.2922 7.2923 20.0696 7.6239 19.796 7.92862C19.4561 8.30802 19.0411 8.65456 18.6952 8.96823C18.3945 9.25801 18.0937 9.54779 17.7899 9.83757C17.7719 9.85549 17.7538 9.87342 17.7358 9.89134C17.1975 10.4111 16.6561 10.928 16.1148 11.4448C14.9659 12.5352 13.799 13.6077 12.6381 14.6831C12.2982 15.0715 12.0877 15.5106 12.3223 16.0782C12.596 16.7325 13.405 17.1866 13.9554 17.5929C15.3929 18.6534 16.9027 19.6213 18.3914 20.6071C19.7388 21.4974 21.1854 22.7222 22.8366 22.9702C24.7373 23.254 24.9388 21.2972 25.1644 19.9081C25.4651 18.0499 25.7629 16.1918 26.0606 14.3336C26.6411 10.7189 27.2516 7.10708 27.7508 3.48038C27.823 2.95161 27.9854 2.24658 27.9975 1.61027C27.9854 0.767818 27.6907 0.0657786 26.6411 5.58207e-05Z" fill="#FEFEFE"/>
</svg>
