<svg width="28" height="28" viewBox="0 0 28 28" fill="none" xmlns="http://www.w3.org/2000/svg">
<g clip-path="url(#clip0_189_593)">
<path d="M3.5 10.4998C3.5 9.881 3.74583 9.28751 4.18342 8.84992C4.621 8.41234 5.21449 8.1665 5.83333 8.1665H22.1667C22.7855 8.1665 23.379 8.41234 23.8166 8.84992C24.2542 9.28751 24.5 9.881 24.5 10.4998V20.9998C24.5 21.6187 24.2542 22.2122 23.8166 22.6498C23.379 23.0873 22.7855 23.3332 22.1667 23.3332H5.83333C5.21449 23.3332 4.621 23.0873 4.18342 22.6498C3.74583 22.2122 3.5 21.6187 3.5 20.9998V10.4998Z" stroke="black" stroke-width="2.5" stroke-linecap="round" stroke-linejoin="round"/>
<path d="M9.33301 8.16667V5.83333C9.33301 5.21449 9.57884 4.621 10.0164 4.18342C10.454 3.74583 11.0475 3.5 11.6663 3.5H16.333C16.9518 3.5 17.5453 3.74583 17.9829 4.18342C18.4205 4.621 18.6663 5.21449 18.6663 5.83333V8.16667" stroke="black" stroke-width="2.5" stroke-linecap="round" stroke-linejoin="round"/>
<path d="M14 14V14.0125" stroke="black" stroke-width="2.5" stroke-linecap="round" stroke-linejoin="round"/>
<path d="M3.5 15.1665C6.75684 16.8076 10.353 17.6625 14 17.6625C17.647 17.6625 21.2432 16.8076 24.5 15.1665" stroke="black" stroke-width="2.5" stroke-linecap="round" stroke-linejoin="round"/>
</g>
<defs>
<clipPath id="clip0_189_593">
<rect width="28" height="28" fill="white"/>
</clipPath>
</defs>
</svg>
